<?xml version="1.0" encoding="UTF-8"?>
<svg xmlns="http://www.w3.org/2000/svg" width="512" height="512" viewBox="0 0 512 512">
  <circle cx="256" cy="256" r="20" fill="#FFD700"/>
  <path d="M256 60 C280 120, 280 200, 256 220 C232 200, 232 120, 256 60Z" fill="#E5725F"/>
  <path d="M60 256 C120 232, 200 232, 220 256 C200 280, 120 280, 60 256Z" fill="#E5725F"/>
  <path d="M256 452 C280 392, 280 312, 256 292 C232 312, 232 392, 256 452Z" fill="#E5725F"/>
  <path d="M452 256 C392 232, 312 232, 292 256 C312 280, 392 280, 452 256Z" fill="#E5725F"/>
  <path d="M128 128 C180 150, 220 190, 256 256 C220 190, 180 150, 128 128Z" fill="#6DAF9D"/>
</svg>
